<?xml version="1.0" encoding="UTF-8" standalone="no"?>
<!DOCTYPE svg PUBLIC "-//W3C//DTD SVG 1.1//EN"
 "http://www.w3.org/Graphics/SVG/1.1/DTD/svg11.dtd">
<!-- Generated by graphviz version 11.0.0 (20240428.1522)
 -->
<!-- Title: tree Pages: 1 -->
<svg width="292pt" height="302pt"
 viewBox="0.00 0.00 292.00 302.00" xmlns="http://www.w3.org/2000/svg" xmlns:xlink="http://www.w3.org/1999/xlink">
<g id="graph0" class="graph" transform="scale(1 1) rotate(0) translate(4 298)">
<title>tree</title>
<polygon fill="white" stroke="none" points="-4,4 -4,-298 288,-298 288,4 -4,4"/>
<!-- 0x0 -->
<g id="node1" class="node">
<title>0x0</title>
<polygon fill="lightblue" stroke="black" points="208,-294 75,-294 75,-220 208,-220 208,-294"/>
<text text-anchor="middle" x="141.5" y="-276.7" font-family="Times,serif" font-size="14.00">root</text>
<text text-anchor="middle" x="141.5" y="-260.2" font-family="Times,serif" font-size="14.00">https://qa.securiti.xyz</text>
<text text-anchor="middle" x="141.5" y="-243.7" font-family="Times,serif" font-size="14.00">None</text>
<text text-anchor="middle" x="141.5" y="-227.2" font-family="Times,serif" font-size="14.00">//None</text>
</g>
<!-- 0x1 -->
<g id="node2" class="node">
<title>0x1</title>
<polygon fill="lightblue" stroke="black" points="133,-184 0,-184 0,-110 133,-110 133,-184"/>
<text text-anchor="middle" x="66.5" y="-166.7" font-family="Times,serif" font-size="14.00">child1</text>
<text text-anchor="middle" x="66.5" y="-150.2" font-family="Times,serif" font-size="14.00">https://qa.securiti.xyz</text>
<text text-anchor="middle" x="66.5" y="-133.7" font-family="Times,serif" font-size="14.00">None</text>
<text text-anchor="middle" x="66.5" y="-117.2" font-family="Times,serif" font-size="14.00">//None</text>
</g>
<!-- 0x0&#45;&gt;0x1 -->
<g id="edge1" class="edge">
<title>0x0&#45;&gt;0x1</title>
<path fill="none" stroke="black" d="M116.32,-219.74C110.5,-211.37 104.25,-202.36 98.2,-193.64"/>
<polygon fill="black" stroke="black" points="101.19,-191.81 92.61,-185.59 95.44,-195.8 101.19,-191.81"/>
</g>
<!-- 0x3 -->
<g id="node4" class="node">
<title>0x3</title>
<polygon fill="lightblue" stroke="black" points="284,-184 151,-184 151,-110 284,-110 284,-184"/>
<text text-anchor="middle" x="217.5" y="-166.7" font-family="Times,serif" font-size="14.00">child2</text>
<text text-anchor="middle" x="217.5" y="-150.2" font-family="Times,serif" font-size="14.00">https://qa.securiti.xyz</text>
<text text-anchor="middle" x="217.5" y="-133.7" font-family="Times,serif" font-size="14.00">None</text>
<text text-anchor="middle" x="217.5" y="-117.2" font-family="Times,serif" font-size="14.00">//None</text>
</g>
<!-- 0x0&#45;&gt;0x3 -->
<g id="edge2" class="edge">
<title>0x0&#45;&gt;0x3</title>
<path fill="none" stroke="black" d="M167.02,-219.74C172.91,-211.37 179.25,-202.36 185.38,-193.64"/>
<polygon fill="black" stroke="black" points="188.16,-195.78 191.05,-185.59 182.43,-191.75 188.16,-195.78"/>
</g>
<!-- 0x2 -->
<g id="node3" class="node">
<title>0x2</title>
<polygon fill="lightblue" stroke="black" points="133,-74 0,-74 0,0 133,0 133,-74"/>
<text text-anchor="middle" x="66.5" y="-56.7" font-family="Times,serif" font-size="14.00">grandchild1</text>
<text text-anchor="middle" x="66.5" y="-40.2" font-family="Times,serif" font-size="14.00">https://qa.securiti.xyz</text>
<text text-anchor="middle" x="66.5" y="-23.7" font-family="Times,serif" font-size="14.00">None</text>
<text text-anchor="middle" x="66.5" y="-7.2" font-family="Times,serif" font-size="14.00">//None</text>
</g>
<!-- 0x1&#45;&gt;0x2 -->
<g id="edge3" class="edge">
<title>0x1&#45;&gt;0x2</title>
<path fill="none" stroke="black" d="M66.5,-109.74C66.5,-101.99 66.5,-93.7 66.5,-85.6"/>
<polygon fill="black" stroke="black" points="70,-85.86 66.5,-75.86 63,-85.86 70,-85.86"/>
</g>
</g>
</svg>
